<svg width="65" height="65" viewBox="0 0 65 65" fill="none" xmlns="http://www.w3.org/2000/svg">
<g id="bxs:cube">
<path id="Vector" d="M57.9747 16.483L33.5997 5.64962C33.2531 5.4956 32.878 5.41602 32.4987 5.41602C32.1194 5.41602 31.7444 5.4956 31.3978 5.64962L7.02279 16.483C6.96862 16.5073 6.93071 16.548 6.87654 16.5777C6.80071 16.6157 6.71946 16.64 6.64904 16.6861C6.58946 16.7267 6.54341 16.7782 6.48654 16.8215C6.28857 16.9686 6.11493 17.1459 5.97196 17.3469C5.91779 17.4227 5.86091 17.4905 5.81216 17.5663C5.73156 17.7094 5.66272 17.8589 5.60633 18.0132C5.58196 18.0863 5.54404 18.154 5.52237 18.2271C5.45435 18.465 5.41882 18.711 5.41675 18.9584V46.0417C5.41675 47.1142 6.04508 48.0811 7.0255 48.5171L31.4005 59.3505C31.7526 59.5075 32.1263 59.5834 32.5001 59.5834C32.8772 59.5737 33.2481 59.4851 33.5888 59.3234L33.5997 59.3505L57.9747 48.5171C58.4538 48.3047 58.8608 47.9576 59.1464 47.5182C59.432 47.0787 59.5838 46.5658 59.5834 46.0417V18.9584C59.5838 18.4343 59.432 17.9214 59.1464 17.4819C58.8608 17.0425 58.4538 16.6954 57.9747 16.483ZM32.5001 11.0907L50.2072 18.9584L32.5001 26.8261L28.9576 25.2525L14.7957 18.9584L32.5001 11.0907ZM35.2084 52.7069V31.5521L54.1668 23.1265V44.284L35.2084 52.7069Z" fill="white"/>
</g>
</svg>
